<svg width="80" height="80" viewBox="0 0 80 80" fill="none" xmlns="http://www.w3.org/2000/svg">
<rect width="80" height="80" rx="40" fill="#F3F3F3"/>
<path d="M41 40C37.3627 40 33.8745 38.525 31.3025 35.8995C28.7306 33.274 27.2857 29.713 27.2857 26C27.2857 22.287 28.7306 18.726 31.3025 16.1005C33.8745 13.475 37.3627 12 41 12C44.6373 12 48.1255 13.475 50.6975 16.1005C53.2694 18.726 54.7143 22.287 54.7143 26C54.7143 29.713 53.2694 33.274 50.6975 35.8995C48.1255 38.525 44.6373 40 41 40ZM39.4036 51.2875L37.4107 47.8969C36.725 46.7266 37.55 45.25 38.8786 45.25H43.1107C44.4393 45.25 45.2643 46.7375 44.5786 47.8969L42.5857 51.2875L46.1643 64.8391L50.0214 48.7719C50.2357 47.8859 51.0714 47.3062 51.9393 47.5359C59.45 49.4609 65 56.3953 65 64.6422C65 66.5016 63.5214 68 61.7107 68H47.5893C47.3643 68 47.1607 67.9562 46.9679 67.8797L47 68H35L35.0321 67.8797C34.8393 67.9562 34.625 68 34.4107 68H20.2893C18.4786 68 17 66.4906 17 64.6422C17 56.3844 22.5607 49.45 30.0607 47.5359C30.9286 47.3172 31.7643 47.8969 31.9786 48.7719L35.8357 64.8391L39.4143 51.2875H39.4036Z" fill="url(#paint0_linear_213_52)"/>
<defs>
<linearGradient id="paint0_linear_213_52" x1="41" y1="77" x2="41" y2="-1.5" gradientUnits="userSpaceOnUse">
<stop stop-color="#F9D423"/>
<stop offset="1" stop-color="#FF4E50"/>
</linearGradient>
</defs>
</svg>
