<svg width="80" height="80" viewBox="0 0 80 80" fill="none" xmlns="http://www.w3.org/2000/svg">
<rect width="80" height="80" rx="40" fill="#F3F3F3"/>
<path d="M60.9451 12.0034H24.4483C22.533 11.9427 20.6735 12.7042 19.2773 14.121C17.8812 15.5377 17.0622 17.4943 17 19.5617V59.4442C17.0777 61.87 18.0435 64.1636 19.6856 65.8217C21.3277 67.4798 23.5119 68.3672 25.7592 68.2891H60.9451C61.5354 68.2807 62.0992 68.0239 62.5166 67.5733C62.934 67.1227 63.1719 66.514 63.1796 65.8768V14.4156C63.1719 13.7784 62.934 13.1697 62.5166 12.7191C62.0992 12.2685 61.5354 12.0117 60.9451 12.0034ZM58.7106 63.4646H25.7592C24.6967 63.5442 23.6484 63.1656 22.8441 62.4119C22.0398 61.6582 21.5453 60.591 21.469 59.4442C21.5453 58.2974 22.0398 57.2301 22.8441 56.4764C23.6484 55.7227 24.6967 55.3442 25.7592 55.4238H58.7106V63.4646ZM58.7106 50.5993H25.7592C24.2593 50.6011 22.7839 51.0103 21.469 51.7893V19.5617C21.5372 18.7766 21.8869 18.0513 22.4435 17.5406C23.0001 17.0298 23.7195 16.7741 24.4483 16.8279H58.7106V50.5993Z" fill="url(#paint0_linear_213_37)"/>
<path d="M30.407 29.6933H49.7727C50.3653 29.6933 50.9336 29.4391 51.3527 28.9867C51.7717 28.5343 52.0072 27.9208 52.0072 27.281C52.0072 26.6413 51.7717 26.0277 51.3527 25.5753C50.9336 25.1229 50.3653 24.8688 49.7727 24.8688H30.407C29.8144 24.8688 29.246 25.1229 28.827 25.5753C28.4079 26.0277 28.1725 26.6413 28.1725 27.281C28.1725 27.9208 28.4079 28.5343 28.827 28.9867C29.246 29.4391 29.8144 29.6933 30.407 29.6933ZM30.407 40.9504H49.7727C50.3653 40.9504 50.9336 40.6963 51.3527 40.2439C51.7717 39.7915 52.0072 39.1779 52.0072 38.5382C52.0072 37.8984 51.7717 37.2848 51.3527 36.8324C50.9336 36.3801 50.3653 36.1259 49.7727 36.1259H30.407C29.8144 36.1259 29.246 36.3801 28.827 36.8324C28.4079 37.2848 28.1725 37.8984 28.1725 38.5382C28.1725 39.1779 28.4079 39.7915 28.827 40.2439C29.246 40.6963 29.8144 40.9504 30.407 40.9504Z" fill="url(#paint1_linear_213_37)"/>
<defs>
<linearGradient id="paint0_linear_213_37" x1="40.0898" y1="77.341" x2="40.0898" y2="-1.57083" gradientUnits="userSpaceOnUse">
<stop stop-color="#F9D423"/>
<stop offset="1" stop-color="#FF4E50"/>
</linearGradient>
<linearGradient id="paint1_linear_213_37" x1="40.0898" y1="43.535" x2="40.0898" y2="20.992" gradientUnits="userSpaceOnUse">
<stop stop-color="#F9D423"/>
<stop offset="1" stop-color="#FF4E50"/>
</linearGradient>
</defs>
</svg>
