<svg width="125" height="159" viewBox="0 0 125 159" fill="red" xmlns="http://www.w3.org/2000/svg">
<path d="M28.5072 39.6923H51.1688M28.5072 79.35H96.4919M28.5072 102.011H96.4919M28.5072 124.673H51.1688M17.1765 153H107.823C110.828 153 113.71 151.806 115.835 149.681C117.96 147.556 119.153 144.674 119.153 141.669V17.0307C119.153 14.0256 117.96 11.1436 115.835 9.01866C113.71 6.89372 110.828 5.69995 107.823 5.69995H17.1765C14.1714 5.69995 11.2893 6.89372 9.16441 9.01866C7.03948 11.1436 5.8457 14.0256 5.8457 17.0307V141.669C5.8457 144.674 7.03948 147.556 9.16441 149.681C11.2893 151.806 14.1714 153 17.1765 153Z" stroke="black" stroke-width="11.3308" stroke-linecap="round" stroke-linejoin="round"/>
<path d="M96.4909 42.525C98.0553 42.525 99.3236 41.2568 99.3236 39.6923C99.3236 38.1279 98.0553 36.8596 96.4909 36.8596C94.9264 36.8596 93.6582 38.1279 93.6582 39.6923C93.6582 41.2568 94.9264 42.525 96.4909 42.525Z" fill="black" stroke="black" stroke-width="5.66538"/>
</svg>
