<svg width="143" height="153" viewBox="0 0 143 153" fill="none" xmlns="http://www.w3.org/2000/svg">
<path d="M98.356 137.591L84.2035 123.438L76.4989 131.143L98.356 153L142.07 109.286L134.366 101.581L98.356 137.591ZM27.3203 81.9643H65.5703V92.8928H27.3203V81.9643ZM27.3203 54.6428H92.8917V65.5714H27.3203V54.6428ZM27.3203 27.3214H92.8917V38.25H27.3203V27.3214Z" fill="black"/>
<path d="M65.5714 153H10.9286C4.90146 153 0 148.099 0 142.071V10.9286C0 4.90146 4.90146 0 10.9286 0H109.286C115.313 0 120.214 4.90146 120.214 10.9286V92.8929H109.286V10.9286H10.9286V142.071H65.5714V153Z" fill="black"/>
</svg>
