<svg width="80" height="80" viewBox="0 0 80 80" fill="none" xmlns="http://www.w3.org/2000/svg">
<rect width="80" height="80" rx="40" fill="url(#paint0_linear_213_45)"/>
<path d="M61.4997 29.545V22.3571C61.4997 21.4288 61.131 20.5386 60.4746 19.8823C59.8183 19.2259 58.928 18.8572 57.9998 18.8572H19.5C18.5717 18.8572 17.6815 19.2259 17.0251 19.8823C16.3687 20.5386 16 21.4288 16 22.3571V50.3562C16 51.2845 16.3687 52.1747 17.0251 52.831C17.6815 53.4874 18.5717 53.8561 19.5 53.8561H43.9998V59.106C43.9996 59.4044 44.0758 59.698 44.221 59.9587C44.3662 60.2194 44.5757 60.4387 44.8295 60.5956C45.0834 60.7526 45.3731 60.842 45.6713 60.8554C45.9694 60.8688 46.2661 60.8057 46.533 60.6722L52.7498 57.5616L58.9666 60.6722C59.2335 60.8057 59.5302 60.8688 59.8283 60.8554C60.1265 60.842 60.4162 60.7526 60.6701 60.5956C60.9239 60.4387 61.1334 60.2194 61.2786 59.9587C61.4238 59.698 61.5 59.4044 61.4997 59.106V46.6682C63.7431 44.3831 65 41.3088 65 38.1066C65 34.9044 63.7431 31.8301 61.4997 29.545ZM38.7499 41.6065H26.4999C26.0358 41.6065 25.5907 41.4221 25.2625 41.094C24.9343 40.7658 24.75 40.3207 24.75 39.8566C24.75 39.3924 24.9343 38.9473 25.2625 38.6191C25.5907 38.291 26.0358 38.1066 26.4999 38.1066H38.7499C39.214 38.1066 39.6591 38.291 39.9873 38.6191C40.3155 38.9473 40.4999 39.3924 40.4999 39.8566C40.4999 40.3207 40.3155 40.7658 39.9873 41.094C39.6591 41.4221 39.214 41.6065 38.7499 41.6065ZM38.7499 34.6067H26.4999C26.0358 34.6067 25.5907 34.4223 25.2625 34.0942C24.9343 33.766 24.75 33.3209 24.75 32.8568C24.75 32.3926 24.9343 31.9475 25.2625 31.6194C25.5907 31.2912 26.0358 31.1068 26.4999 31.1068H38.7499C39.214 31.1068 39.6591 31.2912 39.9873 31.6194C40.3155 31.9475 40.4999 32.3926 40.4999 32.8568C40.4999 33.3209 40.3155 33.766 39.9873 34.0942C39.6591 34.4223 39.214 34.6067 38.7499 34.6067ZM57.9998 56.2754L53.5329 54.0399C53.2898 53.9182 53.0217 53.8549 52.7498 53.8549C52.4779 53.8549 52.2098 53.9182 51.9667 54.0399L47.4998 56.2754V49.1728C49.1403 49.952 50.9337 50.3562 52.7498 50.3562C54.5659 50.3562 56.3593 49.952 57.9998 49.1728V56.2754ZM52.7498 46.8563C51.0192 46.8563 49.3275 46.3432 47.8886 45.3817C46.4497 44.4203 45.3282 43.0538 44.6659 41.455C44.0036 39.8562 43.8304 38.0969 44.168 36.3996C44.5056 34.7023 45.3389 33.1433 46.5626 31.9196C47.7863 30.6959 49.3454 29.8626 51.0428 29.525C52.7401 29.1874 54.4994 29.3607 56.0983 30.0229C57.6971 30.6851 59.0637 31.8066 60.0251 33.2455C60.9866 34.6844 61.4997 36.3761 61.4997 38.1066C61.4997 40.4272 60.5779 42.6527 58.9369 44.2936C57.296 45.9345 55.0704 46.8563 52.7498 46.8563Z" fill="white"/>
<defs>
<linearGradient id="paint0_linear_213_45" x1="40" y1="92.8571" x2="40" y2="-19.2857" gradientUnits="userSpaceOnUse">
<stop stop-color="#F9D423"/>
<stop offset="1" stop-color="#FF4E50"/>
</linearGradient>
</defs>
</svg>
