<svg width="29" height="23" viewBox="0 0 29 23" fill="none" xmlns="http://www.w3.org/2000/svg">
<path d="M0 1.77303C0 1.30279 0.1868 0.851814 0.519307 0.519307C0.851814 0.1868 1.30279 0 1.77303 0H26.5954C27.0656 0 27.5166 0.1868 27.8491 0.519307C28.1816 0.851814 28.3684 1.30279 28.3684 1.77303C28.3684 2.24326 28.1816 2.69424 27.8491 3.02675C27.5166 3.35925 27.0656 3.54605 26.5954 3.54605H1.77303C1.30279 3.54605 0.851814 3.35925 0.519307 3.02675C0.1868 2.69424 0 2.24326 0 1.77303ZM0 11.2292C0 10.7589 0.1868 10.308 0.519307 9.97545C0.851814 9.64294 1.30279 9.45614 1.77303 9.45614H26.5954C27.0656 9.45614 27.5166 9.64294 27.8491 9.97545C28.1816 10.308 28.3684 10.7589 28.3684 11.2292C28.3684 11.6994 28.1816 12.1504 27.8491 12.4829C27.5166 12.8154 27.0656 13.0022 26.5954 13.0022H1.77303C1.30279 13.0022 0.851814 12.8154 0.519307 12.4829C0.1868 12.1504 0 11.6994 0 11.2292ZM0 20.6853C0 20.2151 0.1868 19.7641 0.519307 19.4316C0.851814 19.0991 1.30279 18.9123 1.77303 18.9123H26.5954C27.0656 18.9123 27.5166 19.0991 27.8491 19.4316C28.1816 19.7641 28.3684 20.2151 28.3684 20.6853C28.3684 21.1555 28.1816 21.6065 27.8491 21.939C27.5166 22.2715 27.0656 22.4583 26.5954 22.4583H1.77303C1.30279 22.4583 0.851814 22.2715 0.519307 21.939C0.1868 21.6065 0 21.1555 0 20.6853Z" fill="white"/>
</svg>
