<svg width="91" height="154" viewBox="0 0 91 154" fill="none" xmlns="http://www.w3.org/2000/svg">
<path d="M0 107.083C1.62031 125.333 16.5644 138.285 39.3144 139.96V153.272H50.7332V139.96C75.5852 138 91 124.216 91 103.831C91 86.4237 80.6322 76.3515 58.6376 70.6805L50.7332 68.6332V27.0088C63.0168 28.2131 71.3045 34.8257 73.3956 44.7008H89.4892C87.6718 27.184 72.6292 14.6156 50.7332 13.2252V0H39.3144V13.4989C18.0861 16.017 3.51432 29.6144 3.51432 48.0509C3.51432 63.9693 14.0901 75.2348 32.647 79.9863L39.3253 81.7599V125.891C26.746 124.03 18.0861 117.133 15.9951 107.083H0ZM37.1248 65.086C25.706 62.2067 19.6079 56.0539 19.6079 47.394C19.6079 37.0591 27.3153 29.4283 39.3144 27.381V65.6444L37.1248 65.086ZM54.5431 85.5807C68.6332 89.1169 74.8188 94.9851 74.8188 104.948C74.8188 116.958 65.7757 124.961 50.7332 126.176V84.6282L54.5431 85.5698V85.5807Z" fill="black"/>
</svg>
